<?xml version="1.0" standalone="no"?><!DOCTYPE svg PUBLIC "-//W3C//DTD SVG 1.1//EN" "http://www.w3.org/Graphics/SVG/1.1/DTD/svg11.dtd"><svg t="1609402591137" class="icon" viewBox="0 0 1283 1024" version="1.1" xmlns="http://www.w3.org/2000/svg" p-id="2505" xmlns:xlink="http://www.w3.org/1999/xlink" width="250.5859375" height="200"><defs><style type="text/css"></style></defs><path d="M1023.984763 606.019688a86.768651 86.768651 0 0 0-24.779587-61.989064L515.96313 61.911277a225.742841 225.742841 0 0 0-68.725263-43.945675 202.406725 202.406725 0 0 0-78.82956-18.043389H86.771057a83.480745 83.480745 0 0 0-60.866364 25.902287A83.480745 83.480745 0 0 0 0.002406 86.690864v280.674936a198.156504 198.156504 0 0 0 18.043389 78.82956 195.429948 195.429948 0 0 0 43.945675 68.725263l483.482625 483.161853a82.438238 82.438238 0 0 0 60.866364 24.779588 86.768651 86.768651 0 0 0 61.989065-24.779588l331.196424-331.196423a87.00923 87.00923 0 0 0 24.458815-60.866365zM277.148856 278.191363a82.438238 82.438238 0 0 1-60.866364 24.779587 85.645952 85.645952 0 1 1 0-171.21171 84.603445 84.603445 0 0 1 85.645952 85.32518 78.348403 78.348403 0 0 1-24.779588 61.187136z m981.159382 265.839261L775.066192 61.911277a225.742841 225.742841 0 0 0-68.725263-43.945675 202.326532 202.326532 0 0 0-78.82956-18.043389h-152.366394a198.156504 198.156504 0 0 1 78.829561 18.043389 195.429948 195.429948 0 0 1 68.725262 43.945675l483.242047 482.119347a86.768651 86.768651 0 0 1 24.779587 61.989064 82.438238 82.438238 0 0 1-24.779587 60.866365l-316.521135 317.643834a245.871244 245.871244 0 0 0 36.086778 30.393086 70.569698 70.569698 0 0 0 39.454876 8.981598 86.768651 86.768651 0 0 0 61.989065-24.779588l331.196423-332.319123a82.438238 82.438238 0 0 0 24.779588-60.866365 86.768651 86.768651 0 0 0-24.619202-61.828679z m0 0" fill="#8a8a8a" p-id="2506"></path></svg>